<svg width="180" height="44" viewBox="0 0 180 44" fill="none" xmlns="http://www.w3.org/2000/svg">
<path d="M55.2224 13.6098C55.3938 13.8732 55.6076 14.1062 55.8551 14.2995C56.1112 14.4959 56.4477 14.7325 56.8595 15.0144C57.2467 15.2557 57.6205 15.5179 57.9794 15.7999C58.2647 16.0279 58.5063 16.3059 58.6925 16.6205C58.891 16.957 58.9919 17.3424 58.9837 17.7332C58.9912 18.1965 58.8543 18.6506 58.592 19.0322C58.318 19.4213 57.9428 19.7278 57.5073 19.9183C57.022 20.1331 56.496 20.2396 55.9656 20.2304C55.5216 20.2283 55.0797 20.1708 54.6499 20.0592C54.3181 19.9964 54.0033 19.8644 53.7258 19.6716C53.6835 19.6444 53.6475 19.6083 53.6204 19.5658C53.5917 19.5173 53.5793 19.4608 53.5852 19.4047L53.54 17.1743C53.54 17.1391 53.5651 17.119 53.6103 17.1139C53.6555 17.1089 53.6857 17.1139 53.6957 17.1592C53.9769 17.7332 54.223 18.1964 54.4289 18.5488C54.64 18.9057 54.91 19.2241 55.2274 19.4903C55.5322 19.7561 55.9232 19.9011 56.3272 19.8981C56.6613 19.9112 56.989 19.804 57.2512 19.596C57.3807 19.4645 57.4801 19.3064 57.5426 19.1325C57.605 18.9586 57.629 18.7732 57.6128 18.5891C57.6218 18.2119 57.528 17.8394 57.3416 17.5117C57.1695 17.2106 56.945 16.9429 56.6787 16.7212C56.4176 16.5098 56.056 16.253 55.599 15.9509C55.237 15.7227 54.8882 15.4739 54.5545 15.2058C54.3037 14.9963 54.0898 14.7462 53.9217 14.4657C53.7413 14.1614 53.6491 13.8127 53.6555 13.4587C53.6417 13.0028 53.7934 12.5573 54.0824 12.2051C54.3724 11.8575 54.7506 11.5948 55.1772 11.4448C55.6317 11.2828 56.1109 11.201 56.5933 11.2032C56.9301 11.2032 57.2663 11.2335 57.5977 11.2938C57.8742 11.3367 58.1452 11.4093 58.4062 11.5103C58.4738 11.5328 58.5331 11.5749 58.577 11.6311C58.6048 11.6801 58.6187 11.7358 58.6171 11.7922V13.8514C58.6171 13.8816 58.6171 13.9018 58.5468 13.9169C58.4765 13.932 58.4715 13.9169 58.4665 13.9169L58.351 13.65C58.1494 13.1109 57.8739 12.6025 57.5324 12.1396C57.3815 11.9377 57.1836 11.7757 56.9561 11.6678C56.7286 11.5599 56.4782 11.5093 56.2267 11.5204C55.8906 11.506 55.5617 11.6213 55.3077 11.8426C55.1843 11.9646 55.0885 12.1118 55.027 12.2743C54.9654 12.4368 54.9396 12.6107 54.9512 12.7841C54.9618 13.0795 55.0558 13.3658 55.2224 13.6098Z" fill="white"/>
<path d="M67.3802 11.8981C67.2659 11.755 67.1194 11.6411 66.9526 11.5658C66.7858 11.4905 66.6036 11.456 66.421 11.4651C66.421 11.4651 66.3959 11.4349 66.3959 11.3795C66.3959 11.3242 66.3959 11.2939 66.421 11.2939H67.0939C67.4505 11.2939 67.7317 11.3242 67.9476 11.3242C68.1636 11.3242 68.3795 11.3242 68.716 11.2939H69.3638C69.3638 11.2939 69.3889 11.3242 69.3889 11.3795C69.3889 11.4349 69.3889 11.4651 69.3638 11.4651C69.1968 11.4604 69.0313 11.4976 68.8822 11.5732C68.7331 11.6488 68.6052 11.7605 68.5101 11.8981C68.2844 12.2534 68.1755 12.6707 68.1987 13.0913V16.9932C68.2112 17.5956 68.062 18.1903 67.7668 18.7151C67.48 19.2103 67.0537 19.6096 66.5415 19.863C65.9719 20.138 65.3456 20.2742 64.7136 20.2608C64.0806 20.2729 63.4534 20.1385 62.8806 19.8681C62.3642 19.623 61.9299 19.233 61.6302 18.7453C61.3179 18.2117 61.1597 17.6017 61.1732 16.9832V12.4519C61.1827 12.2427 61.1572 12.0334 61.0978 11.8327C61.0739 11.7693 61.0363 11.7121 60.9877 11.6651C60.939 11.6181 60.8806 11.5824 60.8166 11.5608C60.6096 11.5008 60.3941 11.4753 60.1788 11.4853C60.1537 11.4853 60.1387 11.4551 60.1387 11.3997C60.1387 11.3443 60.1387 11.3141 60.1788 11.3141H60.9221C61.354 11.3141 61.6904 11.3443 61.9264 11.3443C62.1625 11.3443 62.5592 11.3443 62.9861 11.3141H63.7042C63.7293 11.3141 63.7444 11.3443 63.7444 11.3997C63.7444 11.4551 63.7444 11.4853 63.7042 11.4853C63.4881 11.4724 63.2715 11.5014 63.0664 11.5709C63.0024 11.5967 62.9443 11.6356 62.896 11.685C62.8476 11.7343 62.8099 11.7932 62.7852 11.8578C62.7259 12.0603 62.7004 12.2713 62.7099 12.4821V16.5099C62.6396 17.3836 62.872 18.2549 63.3677 18.9769C63.5944 19.2456 63.8802 19.4577 64.2027 19.5966C64.5251 19.7356 64.8754 19.7975 65.2258 19.7774C65.5625 19.7956 65.8992 19.7417 66.2135 19.6193C66.5278 19.4969 66.8125 19.3088 67.0487 19.0675C67.5158 18.5047 67.7511 17.7844 67.7066 17.0537V13.0913C67.7362 12.668 67.621 12.2471 67.3802 11.8981Z" fill="white"/>
<path d="M79.7156 11.3789C79.7156 11.4343 79.7156 11.4645 79.6854 11.4645C79.5134 11.4566 79.3421 11.4932 79.1882 11.5708C79.0343 11.6484 78.9029 11.7643 78.8066 11.9076C78.5738 12.2565 78.4594 12.6714 78.4802 13.0907V20.2551C78.4802 20.2551 78.4802 20.3004 78.4199 20.3105C78.4064 20.319 78.3907 20.3235 78.3747 20.3235C78.3588 20.3235 78.3431 20.319 78.3295 20.3105L71.766 12.8239V18.2815C71.7424 18.6967 71.8496 19.1088 72.0723 19.4596C72.1669 19.5982 72.2946 19.7109 72.4437 19.7874C72.5928 19.8639 72.7586 19.9018 72.926 19.8976C72.926 19.8976 72.9562 19.9228 72.9562 19.9782C72.9562 20.0336 72.9562 20.0638 72.926 20.0638C72.6649 20.0638 72.464 20.0638 72.3234 20.0638H71.5701H70.7014C70.5407 20.0638 70.3147 20.0638 70.0134 20.0638C69.9883 20.0638 69.9732 20.0336 69.9732 19.9782C69.9732 19.9228 69.9732 19.8976 70.0134 19.8976C70.1986 19.9057 70.3831 19.8704 70.5522 19.7943C70.7214 19.7183 70.8705 19.6037 70.9876 19.4596C71.2431 19.1223 71.3696 18.7043 71.3442 18.2815V12.3456C71.1161 12.0772 70.8505 11.8431 70.5557 11.6508C70.35 11.53 70.1162 11.4658 69.8778 11.4645C69.8778 11.4645 69.8477 11.4343 69.8477 11.3789C69.8477 11.3235 69.8477 11.2933 69.8778 11.2933H70.4653C70.5859 11.2933 70.7616 11.2933 70.9977 11.2933H72.0573C72.1878 11.2933 72.3485 11.2933 72.5595 11.2933C72.6212 11.2901 72.682 11.3098 72.7302 11.3487L72.926 11.5904C73.0817 11.8069 73.1922 11.9478 73.2575 12.0234L78.1036 17.622V13.0907C78.1268 12.6701 78.0179 12.2528 77.7922 11.8975C77.697 11.7598 77.5691 11.6481 77.4201 11.5725C77.271 11.4969 77.1055 11.4598 76.9385 11.4645C76.9385 11.4645 76.9134 11.4343 76.9134 11.3789C76.9134 11.3235 76.9134 11.2933 76.9385 11.2933H77.5411C77.8424 11.2933 78.0935 11.3235 78.2994 11.3235C78.5053 11.3235 78.7463 11.3235 79.0828 11.2933H79.7105C79.7105 11.2933 79.7156 11.3235 79.7156 11.3789Z" fill="white"/>
<path d="M82.5413 13.6096C82.7145 13.8732 82.93 14.1063 83.179 14.2994C83.4301 14.4957 83.7716 14.7324 84.1834 15.0143C84.5706 15.2556 84.9444 15.5178 85.3033 15.7997C85.603 16.024 85.8584 16.3023 86.0565 16.6204C86.2568 16.9563 86.3594 17.3417 86.3528 17.7331C86.3603 18.1964 86.2234 18.6505 85.9611 19.032C85.6871 19.4212 85.3119 19.7276 84.8764 19.9181C84.3894 20.1329 83.8617 20.2394 83.3297 20.2303C82.8857 20.2282 82.4438 20.1707 82.014 20.0591C81.6823 19.9963 81.3674 19.8642 81.09 19.6714C81.0498 19.6416 81.0142 19.606 80.9845 19.5657C80.9558 19.5172 80.9435 19.4607 80.9494 19.4046L80.9092 17.1742C80.9092 17.139 80.9092 17.1188 80.9795 17.1138C81.0498 17.1088 81.0498 17.1138 81.0598 17.1591C81.3411 17.7331 81.5871 18.1963 81.798 18.5487C82.0057 18.9065 82.2743 19.2251 82.5915 19.4902C82.8967 19.7551 83.2875 19.9 83.6913 19.898C84.0254 19.9111 84.3531 19.8039 84.6153 19.5959C84.7454 19.4647 84.8456 19.3066 84.9089 19.1328C84.9722 18.959 84.9971 18.7734 84.9819 18.589C84.9891 18.2113 84.8936 17.8389 84.7057 17.5115C84.5391 17.1965 84.3161 16.9149 84.0478 16.6808C83.7867 16.4693 83.4251 16.2126 82.9681 15.9105C82.6068 15.6837 82.2596 15.4348 81.9286 15.1654C81.6749 14.9575 81.4591 14.7071 81.2908 14.4252C81.1126 14.12 81.0206 13.772 81.0247 13.4183C81.0108 12.9624 81.1625 12.5169 81.4515 12.1647C81.7395 11.8124 82.1155 11.5431 82.5413 11.3843C82.9941 11.2223 83.4716 11.1406 83.9524 11.1426C84.2892 11.1427 84.6253 11.173 84.9568 11.2332C85.2347 11.2769 85.5073 11.3495 85.7703 11.4497C85.8364 11.4723 85.8942 11.5145 85.936 11.5706C85.9662 11.6186 85.9802 11.6751 85.9762 11.7317V13.7909C85.9762 13.8211 85.9762 13.8412 85.9109 13.8563C85.8456 13.8714 85.8356 13.8563 85.8255 13.8563L85.71 13.5895C85.5104 13.0495 85.2347 12.5409 84.8915 12.0791C84.7405 11.8771 84.5427 11.7152 84.3152 11.6072C84.0876 11.4993 83.8373 11.4487 83.5858 11.4598C83.2498 11.4465 82.9213 11.5617 82.6668 11.782C82.5423 11.9 82.4444 12.0431 82.3794 12.202C82.3145 12.3609 82.2841 12.5318 82.2902 12.7034C82.2789 13.0242 82.3666 13.3406 82.5413 13.6096Z" fill="white"/>
<path d="M94.0609 17.8038C94.0855 17.7967 94.1116 17.7967 94.1362 17.8038C94.1362 17.8038 94.1714 17.8038 94.1714 17.834C94.0833 18.5018 94.0363 19.1744 94.0308 19.8479C94.0377 19.9048 94.0234 19.9622 93.9906 20.009C93.9681 20.0287 93.9417 20.0434 93.9131 20.0521C93.8846 20.0607 93.8545 20.0632 93.8249 20.0594H87.638C87.6078 20.0594 87.5928 20.0292 87.5928 19.9738C87.5928 19.9184 87.5928 19.8932 87.638 19.8932C87.8562 19.9019 88.0745 19.8781 88.2858 19.8228C88.3499 19.8009 88.4082 19.7646 88.4561 19.7166C88.504 19.6685 88.5402 19.6101 88.562 19.5458C88.6166 19.3425 88.6403 19.132 88.6323 18.9215V12.4318C88.6403 12.223 88.6166 12.0142 88.562 11.8125C88.539 11.7486 88.5017 11.6909 88.453 11.6437C88.4042 11.5966 88.3453 11.5613 88.2808 11.5406C88.0718 11.4815 87.8549 11.456 87.638 11.4651C87.6078 11.4651 87.5928 11.4349 87.5928 11.3795C87.5928 11.3242 87.5928 11.2939 87.638 11.2939H93.5889C93.6843 11.2939 93.7295 11.3393 93.7295 11.4198L93.7596 13.2877C93.7596 13.2877 93.7345 13.3229 93.6793 13.328C93.624 13.333 93.5989 13.328 93.5889 13.3028C93.4828 12.8256 93.217 12.3991 92.8356 12.0945C92.4228 11.816 91.9315 11.6783 91.4345 11.7018H91.0177C90.7964 11.6827 90.5761 11.7474 90.4 11.883C90.3303 11.9584 90.277 12.0474 90.2433 12.1444C90.2096 12.2415 90.1962 12.3444 90.2041 12.4469V15.3066H91.3642C91.7971 15.3339 92.2288 15.2379 92.6096 15.0297C92.7454 14.9494 92.8573 14.8343 92.9341 14.6963C93.0109 14.5583 93.0497 14.4023 93.0465 14.2443C93.0465 14.2141 93.0716 14.199 93.1218 14.199C93.1721 14.199 93.1972 14.2141 93.1972 14.2443V15.503V16.1776C93.1972 16.4948 93.2273 16.7465 93.2273 16.9379C93.2273 16.9379 93.1972 16.963 93.1419 16.963C93.0867 16.963 93.0566 16.963 93.0566 16.9379C93.0641 16.7624 93.0282 16.5877 92.952 16.4296C92.8757 16.2714 92.7615 16.1347 92.6197 16.0316C92.234 15.7917 91.7811 15.684 91.329 15.7245H90.1841V18.8964C90.1667 19.1096 90.2216 19.3224 90.3397 19.5005C90.4015 19.5714 90.4794 19.6263 90.5668 19.6604C90.6542 19.6946 90.7486 19.7071 90.8419 19.6969H91.3039C91.913 19.7237 92.5163 19.5677 93.0365 19.2488C93.5057 18.9076 93.8471 18.4182 94.0057 17.8592C94.0057 17.8592 94.0207 17.8038 94.0609 17.8038Z" fill="white"/>
<path d="M95.5033 13.7907C95.5033 13.8209 95.4632 13.8309 95.418 13.8259C95.3728 13.8209 95.3477 13.8259 95.3477 13.7806C95.3878 13.403 95.428 12.9196 95.4732 12.3256C95.5184 11.7315 95.5435 11.2884 95.5435 10.9863C95.5435 10.941 95.5686 10.9158 95.6239 10.9158C95.6791 10.9158 95.6992 10.9158 95.6992 10.9863C95.6992 11.1927 95.9653 11.2934 96.4977 11.2934C97.3012 11.3236 98.2352 11.3387 99.3099 11.3387C99.8573 11.3387 100.445 11.3387 101.058 11.3085H102.012C102.271 11.3199 102.532 11.2962 102.785 11.2381C102.857 11.2241 102.925 11.1911 102.981 11.1425C103.036 11.0938 103.078 11.0312 103.101 10.9611C103.101 10.9209 103.142 10.9058 103.192 10.9058C103.242 10.9058 103.267 10.9058 103.267 10.9611C103.242 11.2381 103.212 11.6912 103.177 12.3054C103.142 12.9196 103.132 13.4181 103.132 13.8158C103.132 13.8158 103.106 13.8561 103.061 13.8561C103.016 13.8561 102.986 13.8561 102.976 13.8158C102.891 13.2063 102.617 12.639 102.192 12.1947C102.004 12.0151 101.781 11.8747 101.538 11.7814C101.295 11.6881 101.036 11.6437 100.776 11.6509C100.679 11.6387 100.581 11.6482 100.488 11.6787C100.395 11.7092 100.31 11.7598 100.239 11.8271C100.131 12.0326 100.085 12.2655 100.108 12.4967V18.9261C100.096 19.1407 100.124 19.3556 100.189 19.5604C100.22 19.6254 100.265 19.6829 100.32 19.7289C100.376 19.775 100.441 19.8085 100.51 19.8273C100.759 19.8828 101.014 19.9065 101.268 19.8978C101.299 19.8978 101.309 19.9229 101.309 19.9783C101.309 20.0337 101.309 20.0639 101.268 20.0639C100.934 20.0639 100.667 20.0639 100.47 20.0639H99.3099H98.175C97.9791 20.0639 97.7079 20.0639 97.3664 20.0639C97.3363 20.0639 97.3212 20.0337 97.3212 19.9783C97.3212 19.9229 97.3212 19.8978 97.3664 19.8978C97.6178 19.9054 97.8691 19.8817 98.1147 19.8273C98.187 19.8087 98.2543 19.7742 98.3116 19.7263C98.3689 19.6784 98.4149 19.6183 98.4461 19.5504C98.5215 19.3513 98.554 19.1386 98.5416 18.9261V12.4313C98.5615 12.2089 98.5179 11.9854 98.416 11.7868C98.3493 11.7241 98.2699 11.6764 98.1833 11.6469C98.0967 11.6174 98.0049 11.6067 97.9138 11.6157C96.7923 11.6157 95.9888 12.3407 95.5033 13.7907Z" fill="white"/>
<path d="M109.752 13.6096C109.926 13.8732 110.141 14.1062 110.39 14.2993C110.641 14.4957 110.983 14.7323 111.394 15.0143C111.782 15.2556 112.156 15.5178 112.514 15.7997C112.8 16.0277 113.041 16.3058 113.227 16.6203C113.428 16.9563 113.53 17.3417 113.524 17.733C113.531 18.1963 113.394 18.6504 113.132 19.032C112.858 19.4211 112.483 19.7276 112.047 19.9181C111.56 20.1328 111.033 20.2393 110.501 20.2302C110.057 20.2282 109.615 20.1706 109.185 20.0591C108.854 19.9951 108.539 19.8631 108.261 19.6714C108.221 19.6416 108.185 19.606 108.155 19.5657C108.129 19.5163 108.117 19.4605 108.12 19.4045L108.08 17.1742C108.08 17.1389 108.08 17.1188 108.15 17.1138C108.221 17.1087 108.226 17.1138 108.231 17.1591C108.512 17.733 108.758 18.1962 108.969 18.5486C109.18 18.9055 109.45 19.2239 109.767 19.4901C110.071 19.7552 110.46 19.9002 110.862 19.898C111.196 19.9119 111.524 19.8047 111.786 19.5959C111.917 19.4654 112.018 19.3075 112.082 19.1335C112.145 18.9594 112.169 18.7735 112.153 18.5889C112.163 18.2109 112.068 17.8375 111.877 17.5115C111.705 17.2104 111.48 16.9427 111.214 16.721C110.953 16.5096 110.591 16.2528 110.134 15.9507C109.773 15.7239 109.425 15.4751 109.095 15.2056C108.842 14.9964 108.627 14.7462 108.457 14.4655C108.278 14.1603 108.186 13.8122 108.191 13.4585C108.177 13.0026 108.328 12.5572 108.617 12.2049C108.911 11.8586 109.29 11.5963 109.717 11.4447C110.177 11.258 110.667 11.1557 111.163 11.1426C111.5 11.1426 111.836 11.173 112.168 11.2332C112.446 11.2769 112.718 11.3494 112.981 11.4497C113.048 11.4708 113.107 11.5132 113.147 11.5705C113.179 11.618 113.195 11.6745 113.192 11.7316V13.7908C113.192 13.821 113.167 13.8412 113.122 13.8563C113.077 13.8714 113.047 13.8563 113.037 13.8563L112.926 13.5894C112.723 13.0512 112.447 12.5431 112.108 12.079C111.956 11.877 111.757 11.7151 111.529 11.6072C111.3 11.4993 111.049 11.4487 110.797 11.4598C110.462 11.4452 110.135 11.5606 109.883 11.782C109.758 11.9031 109.661 12.0501 109.598 12.2127C109.536 12.3753 109.51 12.5496 109.521 12.7235C109.511 13.0351 109.591 13.3431 109.752 13.6096Z" fill="white"/>
<path d="M117.072 19.6215C116.407 19.2244 115.865 18.6512 115.505 17.965C115.136 17.2639 114.946 16.482 114.953 15.6893C114.929 14.8051 115.186 13.9362 115.686 13.2072C116.158 12.5314 116.804 11.9957 117.554 11.6565C118.285 11.3221 119.08 11.1503 119.884 11.1531C120.703 11.1337 121.511 11.3466 122.214 11.7673C122.868 12.1654 123.401 12.7346 123.756 13.4137C124.114 14.0824 124.3 14.8298 124.298 15.5887C124.304 16.4178 124.07 17.2308 123.625 17.9298C123.182 18.6384 122.562 19.2195 121.827 19.6164C121.083 20.0335 120.245 20.2535 119.392 20.2558C118.575 20.2635 117.772 20.0439 117.072 19.6215ZM121.26 19.4251C121.698 19.0806 122.029 18.6177 122.214 18.0909C122.465 17.422 122.584 16.7108 122.566 15.9965C122.588 15.2195 122.469 14.4449 122.214 13.7107C121.99 13.0852 121.597 12.5343 121.079 12.1197C120.584 11.7361 119.973 11.5336 119.347 11.5458C118.966 11.5279 118.587 11.6066 118.244 11.7747C117.902 11.9428 117.608 12.1948 117.388 12.5074C116.887 13.2997 116.643 14.2285 116.69 15.1657C116.676 15.9966 116.815 16.8229 117.102 17.6025C117.332 18.2492 117.722 18.8263 118.237 19.2791C118.69 19.6714 119.27 19.886 119.869 19.8833C120.37 19.8858 120.858 19.725 121.26 19.4251Z" fill="white"/>
<path d="M133.621 19.9782C133.621 20.0336 133.621 20.0638 133.576 20.0638H131.461C131.381 20.0638 131.215 19.8725 130.959 19.4898C130.647 18.9777 130.363 18.4482 130.111 17.9039C129.776 17.2326 129.466 16.4891 129.182 15.6735C129.085 15.6804 128.987 15.6804 128.89 15.6735C128.458 15.6735 128.167 15.6735 128.022 15.6735V18.9259C128.011 19.1401 128.037 19.3546 128.097 19.5603C128.123 19.6245 128.163 19.682 128.214 19.7282C128.265 19.7745 128.327 19.8083 128.393 19.8272C128.628 19.8838 128.87 19.9075 129.111 19.8976C129.111 19.8976 129.141 19.9228 129.141 19.9782C129.141 20.0336 129.141 20.0638 129.111 20.0638C128.805 20.0638 128.559 20.0638 128.383 20.0638H127.318H126.314C126.127 20.0638 125.876 20.0638 125.561 20.0638C125.531 20.0638 125.516 20.0336 125.516 19.9782C125.516 19.9228 125.516 19.8976 125.561 19.8976C125.779 19.9063 125.997 19.8825 126.209 19.8272C126.273 19.8053 126.332 19.769 126.381 19.7211C126.43 19.6731 126.467 19.6147 126.49 19.5502C126.549 19.3477 126.575 19.1368 126.565 18.9259V12.4312C126.576 12.2223 126.552 12.013 126.495 11.8119C126.473 11.7483 126.436 11.6908 126.388 11.6436C126.341 11.5965 126.282 11.561 126.219 11.54C126.008 11.4806 125.789 11.4551 125.571 11.4645C125.571 11.4645 125.546 11.4343 125.546 11.3789C125.546 11.3235 125.546 11.2933 125.571 11.2933H126.314C126.741 11.2933 127.082 11.3235 127.318 11.3235C127.555 11.3235 127.891 11.3235 128.217 11.2782L128.614 11.253C128.78 11.253 128.971 11.253 129.197 11.253C129.897 11.2094 130.596 11.3722 131.205 11.7213C131.427 11.86 131.609 12.054 131.733 12.2844C131.857 12.5148 131.919 12.7735 131.913 13.0353C131.908 13.5045 131.753 13.9596 131.472 14.3343C131.175 14.74 130.791 15.0724 130.347 15.306C130.873 16.5373 131.512 17.7171 132.255 18.8303C132.757 19.5351 133.214 19.8926 133.576 19.8926C133.606 19.8976 133.621 19.9228 133.621 19.9782ZM128.946 15.3211C129.22 15.3347 129.494 15.2812 129.744 15.165C129.945 15.0574 130.097 14.8775 130.171 14.6615C130.269 14.3147 130.313 13.9546 130.301 13.5942C130.355 13.0434 130.237 12.4896 129.965 12.0082C129.851 11.8631 129.704 11.7478 129.536 11.6724C129.368 11.597 129.184 11.5636 129.001 11.5753C128.734 11.5467 128.467 11.6205 128.253 11.7817C128.172 11.8789 128.111 11.9913 128.074 12.1123C128.037 12.2333 128.024 12.3606 128.037 12.4865V15.2909C128.338 15.3237 128.642 15.3338 128.946 15.3211Z" fill="white"/>
<path d="M143.39 19.9782C143.39 20.0336 143.39 20.0638 143.36 20.0638H140.849C140.643 20.0638 140.261 19.6761 139.704 18.9058C138.977 17.8653 138.306 16.7863 137.695 15.6735C137.586 15.6802 137.477 15.6802 137.369 15.6735C137.007 15.6735 136.751 15.6735 136.6 15.6735V18.9259C136.591 19.1398 136.615 19.3537 136.671 19.5603C136.693 19.6226 136.728 19.679 136.775 19.7252C136.822 19.7715 136.879 19.8063 136.942 19.8272C137.155 19.8825 137.375 19.9062 137.595 19.8976C137.595 19.8976 137.625 19.9228 137.625 19.9782C137.625 20.0336 137.625 20.0638 137.595 20.0638C137.288 20.0638 137.042 20.0638 136.866 20.0638H135.802H134.797C134.612 20.0638 134.361 20.0638 134.039 20.0638C134.039 20.0638 133.999 20.0336 133.999 19.9782C133.999 19.9228 133.999 19.8976 134.039 19.8976C134.259 19.9066 134.479 19.8828 134.692 19.8272C134.757 19.8053 134.816 19.769 134.864 19.7211C134.913 19.6731 134.95 19.6147 134.973 19.5502C135.033 19.3477 135.058 19.1368 135.049 18.9259V12.4312C135.057 12.2224 135.033 12.0135 134.978 11.8119C134.956 11.7476 134.919 11.6895 134.87 11.6422C134.821 11.595 134.762 11.56 134.697 11.54C134.488 11.4802 134.271 11.4547 134.054 11.4645C134.054 11.4645 134.029 11.4343 134.029 11.3789C134.029 11.3235 134.029 11.2933 134.054 11.2933H134.797C135.224 11.2933 135.566 11.3235 135.802 11.3235C136.038 11.3235 136.374 11.3235 136.701 11.2782L137.098 11.253C137.263 11.253 137.454 11.253 137.68 11.253C138.381 11.2094 139.079 11.3722 139.689 11.7213C139.91 11.86 140.092 12.054 140.216 12.2844C140.34 12.5148 140.403 12.7735 140.397 13.0353C140.393 13.4766 140.256 13.9065 140.005 14.2688C139.748 14.6604 139.404 14.9876 139.001 15.2254C139.751 16.4035 140.378 17.3249 140.884 17.9895C141.272 18.5289 141.728 19.0162 142.24 19.4395C142.564 19.7151 142.97 19.8761 143.395 19.8976C143.395 19.8976 143.39 19.9228 143.39 19.9782ZM137.414 15.3211C137.689 15.3347 137.963 15.2812 138.212 15.165C138.413 15.0574 138.566 14.8775 138.639 14.6615C138.738 14.3147 138.782 13.9546 138.77 13.5942C138.823 13.0434 138.706 12.4896 138.433 12.0082C138.32 11.8631 138.172 11.7478 138.005 11.6724C137.837 11.597 137.653 11.5636 137.469 11.5753C137.349 11.5622 137.227 11.5738 137.112 11.6093C136.996 11.6448 136.889 11.7034 136.796 11.7817C136.645 11.9837 136.575 12.2353 136.6 12.4865V15.2909C136.87 15.3216 137.142 15.3317 137.414 15.3211Z" fill="white"/>
<path d="M150.22 17.8038C150.245 17.7974 150.27 17.7974 150.295 17.8038C150.32 17.8038 150.33 17.8038 150.33 17.834C150.24 18.5015 150.193 19.1743 150.19 19.8479C150.194 19.9046 150.18 19.9613 150.15 20.009C150.126 20.0291 150.099 20.044 150.07 20.0527C150.04 20.0613 150.009 20.0636 149.979 20.0594H143.807C143.777 20.0594 143.762 20.0292 143.762 19.9738C143.762 19.9184 143.762 19.8932 143.807 19.8932C144.025 19.9019 144.243 19.8781 144.455 19.8228C144.519 19.8013 144.576 19.765 144.623 19.7169C144.671 19.6688 144.706 19.6102 144.726 19.5458C144.783 19.343 144.807 19.1321 144.796 18.9215V12.4318C144.807 12.2229 144.783 12.0137 144.726 11.8125C144.704 11.7486 144.668 11.6906 144.62 11.6434C144.572 11.5961 144.514 11.5609 144.45 11.5406C144.241 11.4815 144.024 11.456 143.807 11.4651C143.777 11.4651 143.762 11.4349 143.762 11.3795C143.762 11.3242 143.762 11.2939 143.807 11.2939H149.738C149.833 11.2939 149.878 11.3393 149.878 11.4198L149.903 13.2877C149.903 13.2877 149.878 13.3229 149.828 13.328C149.778 13.333 149.748 13.328 149.738 13.3028C149.63 12.8263 149.364 12.4005 148.984 12.0945C148.569 11.8121 148.074 11.6726 147.573 11.6967H147.151C146.932 11.6785 146.713 11.7431 146.539 11.878C146.469 11.9533 146.416 12.0423 146.382 12.1394C146.348 12.2364 146.335 12.3394 146.343 12.4419V15.3016H147.503C147.936 15.328 148.367 15.2321 148.748 15.0247C148.884 14.9441 148.995 14.8289 149.071 14.6908C149.147 14.5527 149.185 14.3969 149.18 14.2393C149.18 14.209 149.205 14.1939 149.261 14.1939C149.316 14.1939 149.336 14.1939 149.336 14.2393V15.4979V16.1726C149.336 16.4898 149.366 16.7415 149.366 16.9328C149.366 16.9328 149.336 16.958 149.281 16.958C149.225 16.958 149.195 16.958 149.195 16.9328C149.203 16.7568 149.166 16.5817 149.089 16.4235C149.012 16.2652 148.897 16.1288 148.753 16.0266C148.379 15.7812 147.935 15.6645 147.488 15.6943H146.343V18.8662C146.328 19.0784 146.381 19.29 146.494 19.4703C146.556 19.5405 146.634 19.5949 146.721 19.6291C146.808 19.6632 146.903 19.6761 146.996 19.6667H147.458C148.072 19.6966 148.681 19.5404 149.205 19.2186C149.673 18.8769 150.013 18.3875 150.17 17.829C150.17 17.829 150.18 17.8038 150.22 17.8038Z" fill="white"/>
<path d="M161.094 11.3789C161.094 11.4343 161.094 11.4645 161.063 11.4645C160.891 11.4566 160.72 11.4932 160.566 11.5708C160.412 11.6484 160.281 11.7643 160.185 11.9076C159.953 12.257 159.84 12.6719 159.863 13.0907V20.2551C159.863 20.2551 159.838 20.3004 159.798 20.3105C159.784 20.3184 159.769 20.3226 159.753 20.3226C159.737 20.3226 159.721 20.3184 159.707 20.3105L153.144 12.8239V18.2815C153.12 18.6967 153.228 19.1088 153.45 19.4596C153.545 19.5982 153.673 19.7109 153.822 19.7874C153.971 19.8639 154.137 19.9018 154.304 19.8976C154.304 19.8976 154.334 19.9228 154.334 19.9782C154.334 20.0336 154.334 20.0638 154.304 20.0638C154.043 20.0638 153.842 20.0638 153.701 20.0638H152.948H152.079C151.924 20.0638 151.693 20.0638 151.396 20.0638C151.366 20.0638 151.351 20.0336 151.351 19.9782C151.351 19.9228 151.351 19.8976 151.396 19.8976C151.581 19.9053 151.764 19.8698 151.933 19.7937C152.101 19.7177 152.249 19.6033 152.366 19.4596C152.621 19.1223 152.747 18.7043 152.722 18.2815V12.3456C152.495 12.076 152.229 11.8419 151.934 11.6508C151.728 11.53 151.494 11.4658 151.256 11.4645C151.256 11.4645 151.226 11.4343 151.226 11.3789C151.226 11.3235 151.226 11.2933 151.256 11.2933H151.843C151.964 11.2933 152.14 11.2933 152.376 11.2933H153.435C153.566 11.2933 153.726 11.2933 153.912 11.2933C153.974 11.2901 154.035 11.3098 154.083 11.3487L154.279 11.5904C154.435 11.8069 154.55 11.9478 154.615 12.0234L159.456 17.622V13.0907C159.48 12.6701 159.371 12.2528 159.145 11.8975C159.05 11.7598 158.922 11.6481 158.773 11.5725C158.624 11.4969 158.458 11.4598 158.291 11.4645C158.291 11.4645 158.291 11.4343 158.291 11.3789C158.291 11.3235 158.291 11.2933 158.291 11.2933H158.894C159.195 11.2933 159.446 11.3235 159.652 11.3235C159.858 11.3235 160.099 11.3235 160.436 11.2933H161.063C161.063 11.2933 161.094 11.3235 161.094 11.3789Z" fill="white"/>
<path d="M161.946 13.7907C161.946 13.8209 161.906 13.8309 161.86 13.8259C161.815 13.8209 161.79 13.8259 161.79 13.7806C161.825 13.403 161.87 12.9196 161.916 12.3256C161.961 11.7315 161.986 11.2884 161.986 10.9863C161.986 10.941 162.011 10.9158 162.061 10.9158C162.111 10.9158 162.142 10.9158 162.142 10.9863C162.142 11.1927 162.408 11.2934 162.94 11.2934C163.739 11.3236 164.678 11.3387 165.752 11.3387C166.301 11.3387 166.884 11.3287 167.5 11.3085H168.449C168.71 11.3201 168.972 11.2964 169.227 11.2381C169.3 11.2241 169.367 11.1911 169.423 11.1425C169.478 11.0938 169.52 11.0312 169.544 10.9611C169.544 10.9209 169.584 10.9058 169.634 10.9058C169.684 10.9058 169.709 10.9058 169.709 10.9611C169.684 11.2381 169.654 11.6912 169.619 12.3054C169.584 12.9196 169.569 13.4181 169.569 13.8158C169.569 13.8158 169.569 13.8561 169.499 13.8561C169.428 13.8561 169.428 13.8561 169.418 13.8158C169.334 13.2063 169.06 12.639 168.635 12.1947C168.446 12.0151 168.224 11.8747 167.981 11.7814C167.738 11.6881 167.479 11.6437 167.219 11.6509C167.122 11.638 167.023 11.6472 166.93 11.6777C166.837 11.7082 166.752 11.7592 166.681 11.8271C166.573 12.0326 166.528 12.2655 166.551 12.4967V18.9261C166.539 19.1407 166.566 19.3556 166.631 19.5604C166.662 19.6254 166.707 19.6829 166.763 19.7289C166.818 19.775 166.883 19.8085 166.952 19.8273C167.201 19.8828 167.456 19.9065 167.711 19.8978C167.711 19.8978 167.751 19.9229 167.751 19.9783C167.751 20.0337 167.751 20.0639 167.711 20.0639C167.376 20.0639 167.11 20.0639 166.912 20.0639H165.752H164.617C164.423 20.0639 164.152 20.0639 163.804 20.0639C163.779 20.0639 163.764 20.0337 163.764 19.9783C163.764 19.9229 163.764 19.8978 163.804 19.8978C164.055 19.9057 164.307 19.882 164.552 19.8273C164.625 19.8094 164.694 19.7752 164.752 19.7273C164.81 19.6793 164.857 19.6189 164.889 19.5504C164.959 19.3502 164.99 19.1381 164.979 18.9261V12.4313C165.001 12.2088 164.957 11.9846 164.853 11.7868C164.787 11.723 164.708 11.6746 164.621 11.645C164.535 11.6154 164.442 11.6054 164.351 11.6157C163.233 11.6157 162.431 12.3407 161.946 13.7907Z" fill="white"/>
<path d="M172.782 19.6212C172.116 19.2271 171.573 18.6532 171.215 17.9648C170.844 17.2645 170.655 16.4821 170.663 15.6891C170.636 14.8051 170.891 13.9356 171.391 13.207C171.861 12.5291 172.507 11.9929 173.259 11.6563C173.991 11.3214 174.786 11.1496 175.589 11.1528C176.411 11.1353 177.221 11.3518 177.925 11.7771C178.575 12.1738 179.105 12.7392 179.461 13.4134C179.815 14.0835 180 14.8303 179.999 15.5884C180.006 16.4179 179.773 17.2315 179.326 17.9296C178.883 18.6394 178.264 19.2208 177.528 19.6162C176.786 20.0343 175.949 20.2544 175.097 20.2556C174.282 20.2634 173.48 20.0437 172.782 19.6212ZM176.965 19.4249C177.417 19.085 177.76 18.6217 177.955 18.0907C178.201 17.4207 178.318 16.71 178.301 15.9962C178.314 15.2083 178.181 14.4248 177.91 13.6853C177.686 13.0611 177.295 12.5107 176.78 12.0943C176.282 11.711 175.669 11.5087 175.042 11.5204C174.661 11.5025 174.282 11.5812 173.94 11.7493C173.597 11.9174 173.303 12.1694 173.084 12.482C172.582 13.2831 172.343 14.2215 172.401 15.1655C172.386 15.9964 172.526 16.8227 172.812 17.6023C173.039 18.2479 173.426 18.8249 173.937 19.2789C174.391 19.6712 174.97 19.8858 175.569 19.883C176.067 19.8834 176.551 19.7227 176.95 19.4249H176.965Z" fill="white"/>
<path d="M92.8706 32.5199C92.8706 32.5501 92.8706 32.5652 92.8706 32.5652H91.58C91.4544 32.5652 91.2284 32.3436 90.892 31.8956C90.5555 31.4475 90.1487 30.8232 89.6717 30.0176C89.5831 30.0251 89.4941 30.0251 89.4055 30.0176H88.9887V31.9006C88.9826 32.0231 88.9979 32.1458 89.0339 32.2631C89.0473 32.2998 89.0693 32.3328 89.0982 32.3591C89.1271 32.3854 89.1619 32.4043 89.1996 32.4141C89.3295 32.4451 89.4629 32.4587 89.5963 32.4544C89.5963 32.4544 89.5963 32.4544 89.5963 32.5048C89.5963 32.5551 89.5963 32.5501 89.5963 32.5501H89.1896H88.592H88.0145H87.5625C87.5625 32.5501 87.5625 32.5501 87.5625 32.5048C87.5625 32.4594 87.5625 32.4544 87.5625 32.4544C87.696 32.4595 87.8295 32.4459 87.9592 32.4141C87.9983 32.403 88.0344 32.3832 88.0648 32.3562C88.0953 32.3291 88.1192 32.2956 88.135 32.2581C88.1702 32.1423 88.1855 32.0215 88.1802 31.9006V28.1749C88.1846 28.0561 88.1711 27.9372 88.14 27.8225C88.1239 27.7851 88.0999 27.7517 88.0695 27.7248C88.0391 27.6978 88.0032 27.6779 87.9642 27.6664C87.8369 27.6308 87.7047 27.6155 87.5725 27.6211C87.5725 27.6211 87.5725 27.6211 87.5725 27.5707C87.5725 27.5204 87.5725 27.5254 87.5725 27.5254H87.9894H88.5568C88.7175 27.5254 88.8883 27.5254 89.059 27.5254H89.29H89.5913C89.9748 27.5006 90.3567 27.5937 90.6861 27.7923C90.81 27.8716 90.911 27.9822 90.9789 28.1129C91.0467 28.2437 91.0791 28.3901 91.0728 28.5374C91.072 28.7932 90.9931 29.0427 90.8468 29.2523C90.6991 29.4793 90.4993 29.6674 90.2642 29.8011C90.7011 30.4758 91.0677 31.0044 91.364 31.3921C91.5925 31.7014 91.8591 31.9806 92.1575 32.2228C92.3478 32.3797 92.5842 32.4698 92.8304 32.4796C92.8304 32.4796 92.8706 32.4846 92.8706 32.5199ZM89.4256 29.8212C89.5478 29.8339 89.6712 29.8207 89.788 29.7825C89.9048 29.7444 90.0123 29.6821 90.1035 29.5997C90.2559 29.3642 90.3233 29.0835 90.2944 28.8042C90.327 28.4879 90.2508 28.17 90.0784 27.903C90.0024 27.8164 89.9078 27.7483 89.8016 27.7038C89.6955 27.6593 89.5806 27.6396 89.4658 27.6462C89.3923 27.6453 89.3193 27.6591 89.2512 27.6867C89.1831 27.7144 89.1212 27.7554 89.069 27.8074C88.9848 27.9312 88.9474 28.0812 88.9636 28.2303V29.8212C89.1174 29.8334 89.2718 29.8334 89.4256 29.8212Z" fill="white"/>
<path d="M97.5308 31.2963H97.576C97.5242 31.6666 97.4973 32.04 97.4956 32.414C97.5056 32.4451 97.5056 32.4785 97.4956 32.5096C97.4647 32.5204 97.4311 32.5204 97.4002 32.5096H93.915C93.915 32.5096 93.915 32.5097 93.915 32.4643C93.915 32.419 93.915 32.414 93.915 32.414C94.0502 32.4187 94.1853 32.4052 94.3168 32.3737C94.3545 32.3622 94.3891 32.3422 94.4179 32.3151C94.4466 32.2881 94.4687 32.2547 94.4825 32.2176C94.5178 32.1019 94.5331 31.981 94.5277 31.8602V28.1345C94.5336 28.0152 94.5183 27.8959 94.4825 27.782C94.4676 27.7448 94.4445 27.7115 94.4149 27.6845C94.3854 27.6574 94.3501 27.6375 94.3118 27.626C94.1827 27.5901 94.0488 27.5748 93.915 27.5807C93.915 27.5807 93.915 27.5807 93.915 27.5303C93.915 27.48 93.915 27.485 93.915 27.485H97.2546C97.3098 27.485 97.3349 27.485 97.3349 27.5555V28.6027C97.3349 28.6027 97.3349 28.6027 97.2897 28.6027C97.2445 28.6027 97.2445 28.6027 97.2395 28.6027C97.2091 28.3346 97.0756 28.0889 96.8675 27.9178C96.6593 27.7467 96.3929 27.6637 96.1247 27.6864H95.8033C95.6595 27.6729 95.5156 27.7103 95.3965 27.7921C95.3521 27.8386 95.3183 27.8942 95.2975 27.955C95.2767 28.0159 95.2693 28.0806 95.276 28.1446V29.7859H96.0443C96.6319 29.7859 96.9281 29.5895 96.9281 29.1918C96.9281 29.1918 96.9281 29.1666 96.9733 29.1666C97.0185 29.1666 97.0135 29.1666 97.0135 29.1918V30.3246C97.0135 30.4958 97.0135 30.6367 97.0135 30.7425C97.0135 30.7425 97.0135 30.7425 96.9633 30.7425C96.9131 30.7425 96.9131 30.7425 96.9131 30.7425C96.9131 30.2843 96.6168 30.0527 96.0142 30.0527H95.2559V31.8753C95.2474 31.9409 95.2518 32.0077 95.2691 32.0716C95.2863 32.1355 95.316 32.1954 95.3563 32.2478C95.4573 32.3275 95.5849 32.3654 95.7129 32.3536H96.1046C96.4217 32.3842 96.7391 32.2971 96.9965 32.1087C97.2538 31.9203 97.4332 31.6438 97.5006 31.3315C97.5006 31.3315 97.5107 31.2963 97.5308 31.2963Z" fill="white"/>
<path d="M100.233 28.9199C100.338 29.0738 100.469 29.2084 100.62 29.3176C100.765 29.4284 100.966 29.5643 101.217 29.7204C101.468 29.8765 101.719 30.0376 101.865 30.1634C102.026 30.2886 102.162 30.4422 102.267 30.6166C102.377 30.8076 102.433 31.0253 102.428 31.2459C102.431 31.5064 102.358 31.7622 102.217 31.981C102.067 32.2024 101.858 32.3769 101.614 32.4845C101.336 32.6096 101.035 32.6715 100.73 32.6657C100.495 32.6637 100.261 32.6349 100.032 32.5801C99.8419 32.5398 99.66 32.4666 99.4948 32.3636C99.47 32.3459 99.4497 32.3225 99.4357 32.2954C99.4217 32.2682 99.4145 32.2381 99.4145 32.2075L99.3643 30.9841C99.3642 30.979 99.3653 30.974 99.3673 30.9694C99.3694 30.9647 99.3724 30.9606 99.3763 30.9572C99.3801 30.9539 99.3846 30.9514 99.3894 30.95C99.3943 30.9485 99.3994 30.9481 99.4044 30.9489C99.4116 30.9431 99.4204 30.94 99.4295 30.94C99.4387 30.94 99.4475 30.9431 99.4546 30.9489C99.601 31.3423 99.804 31.712 100.057 32.0464C100.16 32.1807 100.292 32.2889 100.444 32.3624C100.596 32.4359 100.763 32.4725 100.931 32.4694C101.139 32.4767 101.344 32.4108 101.509 32.2831C101.593 32.2019 101.657 32.1025 101.697 31.9926C101.737 31.8827 101.752 31.7651 101.74 31.6487C101.746 31.4318 101.692 31.2175 101.584 31.0294C101.483 30.8597 101.352 30.7096 101.197 30.5864C101.047 30.4706 100.836 30.3246 100.575 30.1534C100.313 29.9822 100.118 29.8463 99.9719 29.7305C99.8267 29.6113 99.7027 29.4683 99.6053 29.3075C99.5023 29.1269 99.4502 28.9215 99.4546 28.7134C99.4464 28.4585 99.5282 28.2089 99.6857 28.0086C99.8446 27.8109 100.055 27.6611 100.293 27.5756C100.542 27.4805 100.806 27.4327 101.072 27.4346C101.255 27.4362 101.438 27.453 101.619 27.485C101.776 27.5125 101.929 27.5581 102.076 27.6209C102.114 27.6284 102.148 27.6499 102.171 27.6813C102.179 27.711 102.179 27.7423 102.171 27.772L102.197 28.8695C102.197 28.8695 102.197 28.8695 102.151 28.9048C102.106 28.94 102.106 28.9048 102.101 28.9048C101.998 28.5895 101.853 28.2897 101.669 28.0136C101.581 27.883 101.461 27.7776 101.32 27.7079C101.179 27.6382 101.023 27.6064 100.866 27.6159C100.76 27.6108 100.655 27.6269 100.556 27.6632C100.457 27.6996 100.366 27.7553 100.288 27.8273C100.216 27.9024 100.16 27.9917 100.123 28.0896C100.087 28.1875 100.071 28.292 100.077 28.3963C100.077 28.5823 100.131 28.7643 100.233 28.9199Z" fill="white"/>
<path d="M104.522 28.0091C104.275 28.263 104.101 28.5798 104.02 28.9254C104.02 28.9254 104.02 28.9254 103.975 28.9254C103.93 28.9254 103.93 28.9254 103.93 28.9254C103.93 28.714 103.975 28.422 104 28.1148C104.025 27.8077 104.04 27.5409 104.04 27.3747C104.04 27.3445 104.04 27.3345 104.085 27.3345C104.131 27.3345 104.131 27.3345 104.131 27.3747C104.131 27.4905 104.281 27.5509 104.578 27.5509C105.04 27.5509 105.582 27.5509 106.195 27.5509H107.199H107.746C107.896 27.5553 108.046 27.5418 108.193 27.5107C108.234 27.5 108.272 27.4799 108.303 27.4519C108.334 27.4239 108.359 27.3888 108.374 27.3496C108.375 27.3443 108.376 27.3391 108.379 27.3345C108.382 27.3298 108.385 27.3257 108.389 27.3225C108.393 27.3192 108.398 27.3168 108.403 27.3154C108.409 27.314 108.414 27.3136 108.419 27.3143C108.444 27.3143 108.459 27.3143 108.459 27.3496C108.459 27.5174 108.444 27.7691 108.414 28.1048C108.414 28.4421 108.389 28.714 108.389 28.9254C108.389 28.9254 108.389 28.9254 108.344 28.9254C108.299 28.9254 108.299 28.9254 108.294 28.9254C108.273 28.588 108.141 28.2671 107.917 28.0141C107.761 27.8841 107.576 27.7931 107.378 27.7484C107.18 27.7038 106.974 27.7069 106.777 27.7574C106.745 27.7695 106.716 27.7883 106.692 27.8126C106.667 27.837 106.649 27.8662 106.636 27.8983C106.608 28.0015 106.596 28.1086 106.601 28.2155V31.9261C106.595 32.0487 106.61 32.1714 106.646 32.2886C106.664 32.327 106.691 32.3606 106.724 32.3868C106.757 32.413 106.796 32.4311 106.837 32.4397C106.989 32.4709 107.144 32.4844 107.299 32.4799C107.299 32.4799 107.299 32.4799 107.299 32.5303C107.299 32.5806 107.299 32.5756 107.299 32.5756H106.857H106.2H105.572H105.14C105.14 32.5756 105.14 32.5756 105.14 32.5303C105.14 32.485 105.14 32.4799 105.14 32.4799C105.295 32.4844 105.45 32.4709 105.602 32.4397C105.645 32.4309 105.686 32.4123 105.721 32.3852C105.755 32.3581 105.784 32.3234 105.803 32.2836C105.845 32.1693 105.864 32.0478 105.858 31.9261V28.2004C105.862 28.0965 105.849 27.9926 105.818 27.8933C105.788 27.8314 105.736 27.783 105.672 27.7574C105.568 27.7266 105.459 27.713 105.351 27.7171C105.2 27.7079 105.049 27.7289 104.907 27.7791C104.765 27.8292 104.634 27.9074 104.522 28.0091Z" fill="white"/>
<path d="M114.757 32.5196C114.757 32.5498 114.757 32.5649 114.717 32.5649H114.214H113.712H113.24H112.813C112.813 32.5649 112.783 32.5649 112.783 32.5196C112.783 32.4742 112.783 32.4692 112.813 32.4692C112.929 32.4768 113.046 32.4596 113.155 32.4189C113.189 32.4044 113.218 32.3798 113.238 32.3482C113.257 32.3167 113.267 32.2798 113.265 32.2426C113.26 32.1023 113.229 31.9641 113.175 31.8348L112.306 30.0727H110.855L110.237 31.4623C110.172 31.5995 110.136 31.7486 110.132 31.9003C110.128 31.9818 110.145 32.0629 110.18 32.1366C110.215 32.2103 110.267 32.2743 110.332 32.3232C110.5 32.429 110.697 32.48 110.895 32.4692C110.92 32.4692 110.935 32.4692 110.935 32.5196C110.935 32.5699 110.935 32.5649 110.895 32.5649H110.478H109.946H109.444H109.017C108.992 32.5649 108.977 32.5649 108.977 32.5196C108.977 32.4742 108.977 32.4692 109.017 32.4692C109.148 32.4739 109.278 32.4426 109.393 32.3786C109.517 32.2997 109.619 32.1905 109.69 32.0614C109.82 31.8427 109.936 31.6157 110.036 31.3817L111.759 27.4899C111.769 27.4805 111.781 27.4734 111.794 27.4691C111.807 27.4647 111.82 27.4632 111.834 27.4647C111.846 27.4628 111.859 27.4641 111.87 27.4686C111.881 27.473 111.892 27.4803 111.899 27.4899L113.863 31.4623C113.986 31.7451 114.143 32.0121 114.33 32.2577C114.378 32.3206 114.44 32.3721 114.51 32.4087C114.58 32.4452 114.657 32.4659 114.737 32.4692C114.742 32.4692 114.757 32.4843 114.757 32.5196ZM110.92 29.8713H112.17L111.503 28.522L110.92 29.8713Z" fill="white"/>
<path d="M119.631 27.8679C119.565 27.7894 119.481 27.7275 119.387 27.6873C119.293 27.647 119.191 27.6296 119.089 27.6363C119.089 27.6363 119.089 27.6363 119.089 27.586C119.089 27.5356 119.089 27.5407 119.089 27.5407H119.455H119.957H120.394H120.746C120.746 27.5407 120.746 27.5407 120.746 27.586C120.746 27.6313 120.746 27.6363 120.746 27.6363C120.649 27.6288 120.552 27.6461 120.465 27.6867C120.377 27.7272 120.301 27.7896 120.244 27.8679C120.118 28.0621 120.058 28.2915 120.073 28.5224V30.773C120.082 31.1246 119.997 31.4724 119.827 31.7799C119.668 32.0645 119.428 32.2957 119.139 32.4445C118.818 32.6068 118.463 32.6881 118.104 32.6811C117.744 32.6861 117.389 32.6068 117.065 32.4495C116.767 32.3051 116.519 32.0756 116.352 31.79C116.18 31.4827 116.093 31.1351 116.101 30.783V28.1901C116.108 28.0705 116.091 27.9505 116.05 27.8377C116.035 27.8005 116.012 27.7672 115.983 27.7401C115.953 27.7131 115.918 27.6931 115.88 27.6816C115.754 27.6455 115.623 27.6302 115.493 27.6363C115.493 27.6363 115.468 27.6363 115.468 27.586C115.468 27.5356 115.468 27.5407 115.493 27.5407H115.91H116.477H117.07H117.471C117.471 27.5407 117.497 27.5407 117.497 27.586C117.497 27.6313 117.497 27.6363 117.471 27.6363C117.341 27.6302 117.21 27.6455 117.085 27.6816C117.007 27.7115 116.943 27.7713 116.909 27.8478C116.874 27.9635 116.858 28.0844 116.864 28.2052V30.5011C116.825 31.008 116.965 31.5126 117.261 31.9259C117.397 32.0847 117.568 32.2099 117.761 32.292C117.953 32.374 118.162 32.4107 118.37 32.3992C118.569 32.4098 118.767 32.3776 118.951 32.3046C119.136 32.2316 119.303 32.1196 119.44 31.9762C119.714 31.6414 119.85 31.2149 119.822 30.783V28.5224C119.836 28.2887 119.768 28.0572 119.631 27.8679Z" fill="white"/>
<path d="M127.297 32.5201C127.297 32.5503 127.297 32.5654 127.272 32.5654H125.981C125.86 32.5654 125.629 32.3438 125.298 31.8958C124.967 31.4477 124.555 30.8234 124.073 30.0178C123.984 30.0255 123.895 30.0255 123.806 30.0178H123.39V31.9008C123.384 32.0233 123.399 32.146 123.435 32.2633C123.449 32.3004 123.472 32.3335 123.502 32.3598C123.531 32.3861 123.567 32.4048 123.606 32.4143C123.735 32.4461 123.869 32.4597 124.002 32.4546C124.002 32.4546 124.002 32.4546 124.002 32.505C124.002 32.5553 124.002 32.5503 124.002 32.5503H123.591H122.998H122.42H122.004C122.004 32.5503 121.979 32.5503 121.979 32.505C121.979 32.4596 121.979 32.4546 122.004 32.4546C122.137 32.4589 122.27 32.4453 122.4 32.4143C122.439 32.4029 122.474 32.3829 122.504 32.3558C122.533 32.3288 122.556 32.2955 122.571 32.2583C122.611 32.1436 122.628 32.0221 122.621 31.9008V28.1751C122.627 28.0559 122.612 27.9365 122.576 27.8227C122.561 27.7855 122.538 27.7521 122.509 27.7251C122.479 27.6981 122.444 27.6781 122.405 27.6666C122.276 27.6307 122.142 27.6154 122.009 27.6213C122.009 27.6213 122.009 27.6213 122.009 27.5709C122.009 27.5206 122.009 27.5256 122.009 27.5256H122.425H122.998C123.159 27.5256 123.324 27.5256 123.5 27.5256H123.731H124.027C124.413 27.5001 124.796 27.5932 125.127 27.7925C125.25 27.8725 125.351 27.9832 125.419 28.1139C125.486 28.2445 125.519 28.3905 125.514 28.5376C125.513 28.7934 125.434 29.0429 125.288 29.2525C125.143 29.472 124.951 29.656 124.725 29.7912C125.167 30.4659 125.534 30.9945 125.83 31.3822C126.056 31.6924 126.321 31.9717 126.619 32.2129C126.81 32.3689 127.046 32.4589 127.292 32.4697C127.292 32.4697 127.297 32.4848 127.297 32.5201ZM123.857 29.8215C123.978 29.8346 124.101 29.8217 124.217 29.7835C124.333 29.7453 124.44 29.6827 124.53 29.5999C124.684 29.3688 124.753 29.0912 124.725 28.8145C124.758 28.4982 124.682 28.1802 124.51 27.9133C124.435 27.8268 124.341 27.7587 124.235 27.7142C124.13 27.6697 124.016 27.6499 123.902 27.6565C123.76 27.6411 123.617 27.6828 123.505 27.7723C123.417 27.8943 123.377 28.0453 123.395 28.1952V29.8215C123.548 29.8331 123.703 29.8331 123.857 29.8215Z" fill="white"/>
<path d="M133.761 32.5197C133.761 32.5499 133.761 32.565 133.721 32.565H133.219H132.716H132.244H131.818C131.818 32.565 131.787 32.565 131.787 32.5197C131.787 32.4744 131.787 32.4694 131.818 32.4694C131.934 32.4764 132.05 32.4592 132.159 32.419C132.192 32.4038 132.22 32.3788 132.239 32.3474C132.258 32.3159 132.267 32.2794 132.265 32.2428C132.245 32.0996 132.199 31.9612 132.129 31.835L131.265 30.0729H129.809L129.191 31.4624C129.13 31.6007 129.096 31.7494 129.091 31.9005C129.088 31.982 129.104 32.0631 129.139 32.1368C129.174 32.2104 129.226 32.2745 129.292 32.3234C129.458 32.4291 129.653 32.4801 129.849 32.4694C129.879 32.4694 129.889 32.4694 129.889 32.5197C129.889 32.5701 129.889 32.565 129.849 32.565H129.432H128.93H128.428H128.006C127.976 32.565 127.966 32.565 127.966 32.5197C127.966 32.4744 127.966 32.4694 128.006 32.4694C128.137 32.4728 128.267 32.4416 128.383 32.3788C128.507 32.2998 128.608 32.1907 128.679 32.0616C128.809 31.8429 128.925 31.6159 129.025 31.3819L130.748 27.49C130.757 27.4808 130.768 27.4737 130.78 27.4693C130.792 27.465 130.805 27.4635 130.818 27.4649C130.858 27.4649 130.878 27.4649 130.884 27.49L132.852 31.4624C132.976 31.7452 133.133 32.0123 133.319 32.2579C133.367 32.3208 133.429 32.3723 133.499 32.4088C133.569 32.4454 133.647 32.466 133.726 32.4694C133.731 32.4694 133.761 32.4845 133.761 32.5197ZM129.924 29.8715H131.19L130.527 28.5222L129.924 29.8715Z" fill="white"/>
<path d="M140.29 27.586C140.29 27.6212 140.29 27.6363 140.29 27.6363C140.194 27.6301 140.099 27.6475 140.011 27.687C139.923 27.7265 139.847 27.7869 139.788 27.8629C139.66 28.058 139.598 28.2893 139.612 28.5224V32.6811C139.612 32.6811 139.612 32.6811 139.572 32.7113C139.564 32.7157 139.554 32.718 139.544 32.718C139.535 32.718 139.525 32.7157 139.517 32.7113L135.75 28.3311V31.6037C135.737 31.8328 135.797 32.0603 135.921 32.2532C135.979 32.3302 136.056 32.3914 136.143 32.431C136.231 32.4706 136.327 32.4873 136.423 32.4797C136.423 32.4797 136.423 32.4797 136.423 32.5301C136.423 32.5804 136.423 32.5754 136.423 32.5754H136.097H135.67H135.198H134.766C134.766 32.5754 134.766 32.5754 134.766 32.5301C134.766 32.4848 134.766 32.4797 134.766 32.4797C134.867 32.4855 134.968 32.4681 135.061 32.4288C135.154 32.3896 135.237 32.3295 135.304 32.2532C135.438 32.0646 135.504 31.8352 135.489 31.6037V28.0794C135.374 27.9467 135.238 27.8328 135.088 27.7421C134.972 27.6788 134.843 27.6459 134.711 27.6464C134.711 27.6464 134.711 27.6464 134.711 27.596C134.711 27.5457 134.711 27.5507 134.711 27.5507H135.032H135.329H135.831H136.062C136.096 27.5482 136.13 27.559 136.157 27.5809C136.193 27.6212 136.225 27.6651 136.253 27.7118C136.343 27.8327 136.413 27.9183 136.453 27.9686L139.336 31.3771V28.5224C139.351 28.2899 139.292 28.0586 139.165 27.8629C139.108 27.7851 139.032 27.7235 138.944 27.6838C138.856 27.6441 138.759 27.6278 138.663 27.6363C138.663 27.6363 138.663 27.6363 138.663 27.586C138.663 27.5356 138.663 27.5407 138.663 27.5407H138.995H139.421H139.853H140.205C140.205 27.5407 140.29 27.5558 140.29 27.586Z" fill="white"/>
<path d="M142.069 28.0091C141.822 28.263 141.648 28.5798 141.567 28.9254C141.567 28.9254 141.567 28.9254 141.522 28.9254C141.477 28.9254 141.477 28.9254 141.477 28.9254C141.477 28.714 141.522 28.422 141.547 28.1148C141.572 27.8077 141.587 27.5409 141.587 27.3747C141.587 27.3445 141.587 27.3345 141.632 27.3345C141.677 27.3345 141.677 27.3345 141.677 27.3747C141.677 27.4905 141.828 27.5509 142.124 27.5509C142.586 27.5509 143.129 27.5509 143.741 27.5509H144.746H145.313C145.463 27.5553 145.613 27.5418 145.76 27.5107C145.801 27.5 145.838 27.4799 145.87 27.4519C145.901 27.4239 145.926 27.3888 145.941 27.3496C145.942 27.3443 145.943 27.3391 145.946 27.3345C145.948 27.3298 145.952 27.3257 145.956 27.3225C145.96 27.3192 145.965 27.3168 145.97 27.3154C145.976 27.314 145.981 27.3136 145.986 27.3143C146.011 27.3143 146.026 27.3143 146.026 27.3496C146.026 27.5174 146.011 27.7691 145.981 28.1048C145.981 28.4421 145.956 28.714 145.956 28.9254C145.956 28.9254 145.956 28.9254 145.911 28.9254C145.866 28.9254 145.866 28.9254 145.861 28.9254C145.84 28.588 145.708 28.2671 145.484 28.0141C145.328 27.8841 145.143 27.7931 144.945 27.7484C144.747 27.7038 144.541 27.7069 144.344 27.7574C144.312 27.7689 144.282 27.7875 144.258 27.8119C144.233 27.8363 144.215 27.8658 144.203 27.8983C144.173 28.0013 144.16 28.1083 144.163 28.2155V31.9261C144.158 32.049 144.175 32.1719 144.213 32.2886C144.231 32.3274 144.257 32.3615 144.29 32.3878C144.324 32.4141 144.363 32.4319 144.404 32.4397C144.556 32.4709 144.711 32.4844 144.866 32.4799C144.866 32.4799 144.866 32.4799 144.866 32.5303C144.866 32.5806 144.866 32.5756 144.866 32.5756H144.424H143.767H143.139H142.672C142.672 32.5756 142.672 32.5756 142.672 32.5303C142.672 32.485 142.672 32.4799 142.672 32.4799C142.827 32.4844 142.982 32.4709 143.134 32.4397C143.177 32.4309 143.218 32.4123 143.252 32.3852C143.287 32.3581 143.315 32.3234 143.335 32.2836C143.377 32.1693 143.395 32.0478 143.39 31.9261V28.2004C143.394 28.0965 143.381 27.9926 143.35 27.8933C143.32 27.8314 143.268 27.783 143.204 27.7574C143.1 27.7266 142.991 27.713 142.883 27.7171C142.584 27.7025 142.291 27.8076 142.069 28.0091Z" fill="white"/>
<path d="M24.6692 17.4096C24.701 16.9139 24.7649 16.4208 24.8605 15.9333C24.9396 15.5162 25.0413 15.1037 25.1654 14.6977C25.2994 14.1823 25.4886 13.683 25.7298 13.2084C26.2961 12.0953 27.1316 11.1422 28.1599 10.4361C29.1882 9.73008 30.3766 9.2936 31.6165 9.16655H31.6392H31.7592C33.4762 9.00414 35.0824 8.24496 36.2999 7.02042C36.5425 6.77279 36.768 6.50879 36.9746 6.23026C36.6305 7.48674 36.1622 8.70566 35.5767 9.86892C35.3626 10.2916 35.1323 10.7111 34.8858 11.1208C34.6393 11.5305 34.4253 11.8557 34.1755 12.2166C33.5219 13.1454 32.7894 14.0157 31.9862 14.818C31.4928 15.3107 30.9743 15.7774 30.4327 16.2162C31.4607 16.0376 32.4607 15.7238 33.4068 15.283C31.6005 17.0583 29.2753 18.2079 26.7709 18.564C26.5147 18.603 26.2584 18.6323 25.999 18.6518C25.9697 17.6358 26.1473 16.6245 26.5209 15.6797C26.8946 14.7348 27.4564 13.8763 28.172 13.1564C28.4539 12.8747 28.7575 12.616 29.0802 12.3825C27.3803 13.072 25.9943 14.3666 25.1881 16.0179C25.0908 16.213 25.0032 16.4146 24.9254 16.6162C24.8263 16.876 24.7408 17.1409 24.6692 17.4096ZM6.52893 37.3946C6.73592 37.1204 6.96132 36.8608 7.20355 36.6174C8.42107 35.3929 10.0273 34.6337 11.7443 34.4713H11.8643H11.887C13.1281 34.3441 14.3176 33.9069 15.3466 33.1996C16.3756 32.4924 17.2112 31.5377 17.777 30.4229C18.0177 29.9504 18.2069 29.4533 18.3413 28.9401C18.4654 28.5342 18.5672 28.1217 18.6462 27.7045C18.7422 27.2139 18.8062 26.7175 18.8376 26.2185C18.7681 26.48 18.6837 26.7373 18.5846 26.9891C18.5067 27.1907 18.4192 27.3923 18.3219 27.5874C17.5157 29.2387 16.1297 30.5333 14.4298 31.2228C14.7525 30.9894 15.0561 30.7306 15.338 30.4489C16.0526 29.7308 16.6141 28.8745 16.9882 27.932C17.3623 26.9895 17.5413 25.9806 17.5143 24.9666C17.2548 24.9861 16.9986 25.0153 16.7423 25.0544C14.2384 25.4153 11.9147 26.5682 10.1096 28.3451C11.0506 27.8975 12.0462 27.5761 13.0708 27.3891C11.6434 28.5459 10.3837 29.8964 9.32797 31.4017C9.07823 31.7626 8.84146 32.1268 8.61767 32.4975C8.39388 32.8682 8.14089 33.3267 7.92683 33.7494C7.34091 34.9147 6.87262 36.1359 6.52893 37.3946ZM6.20459 6.55218C6.47801 6.7597 6.737 6.98568 6.97976 7.22853C8.20116 8.44917 8.9584 10.0596 9.12039 11.7809V11.9012V11.9207C9.2481 13.1648 9.68494 14.3569 10.3909 15.3879C11.0969 16.419 12.0496 17.256 13.1616 17.8226C13.635 18.0643 14.1331 18.254 14.6471 18.3884C15.0521 18.5128 15.4635 18.6148 15.8796 18.694C16.369 18.7903 16.8641 18.8544 17.3618 18.8859C17.0934 18.8166 16.8292 18.7319 16.5704 18.6323C16.3694 18.5542 16.1683 18.4664 15.9737 18.3689C14.3266 17.5606 13.0353 16.1711 12.3476 14.4668C12.5805 14.7903 12.8386 15.0947 13.1195 15.3773C13.8376 16.0958 14.6944 16.6599 15.6374 17.035C16.5805 17.4102 17.5899 17.5885 18.604 17.5592C18.5846 17.2991 18.5554 17.0422 18.5165 16.7853C18.1607 14.2756 17.014 11.9456 15.2439 10.1356C15.6903 11.0789 16.0109 12.0771 16.1975 13.1044C15.7605 12.5617 15.295 12.0429 14.8028 11.55C14.0035 10.7429 13.1353 10.0074 12.2081 9.35189C11.8481 9.10151 11.4848 8.86414 11.1151 8.63977C10.7453 8.4154 10.288 8.16177 9.86637 7.94716C8.70609 7.36014 7.49029 6.89066 6.23703 6.54568L6.20459 6.55218ZM27.2866 26.3876C26.5147 26.1506 25.7096 26.0408 24.9027 26.0624C24.9222 26.3225 24.9513 26.5794 24.9903 26.8363C25.349 29.349 26.499 31.6811 28.2726 33.4925C27.8262 32.5492 27.5056 31.551 27.319 30.5237C27.7568 31.0667 28.2223 31.5866 28.7137 32.0813C29.5139 32.8865 30.382 33.6209 31.3084 34.2762C31.6684 34.5266 32.0317 34.7639 32.4014 34.9883C32.7711 35.2127 33.2285 35.4663 33.6501 35.6809C34.8171 36.2647 36.0395 36.7298 37.2989 37.0694C37.0254 36.8607 36.7665 36.6337 36.5237 36.3898C35.3023 35.1692 34.5451 33.5588 34.3831 31.8374V31.7171V31.6976C34.2557 30.4539 33.8194 29.262 33.114 28.231C32.4085 27.2 31.4566 26.3627 30.3451 25.7958C29.8738 25.5544 29.3779 25.3647 28.8661 25.23C28.4612 25.1056 28.0497 25.0035 27.6336 24.9243C27.1442 24.828 26.6491 24.7639 26.1514 24.7324C26.4195 24.8027 26.6837 24.8874 26.9428 24.9861C27.1439 25.0641 27.345 25.1519 27.5396 25.2495C29.1866 26.0577 30.4779 27.4473 31.1657 29.1515C30.9328 28.828 30.6747 28.5236 30.3937 28.241C29.5271 27.374 28.4595 26.736 27.2866 26.3843V26.3876ZM0 22.0335C0.339728 21.9878 0.682134 21.965 1.02491 21.9652C2.74914 21.9624 4.42035 22.5627 5.75052 23.6626C5.77827 23.6892 5.8075 23.7142 5.83809 23.7374C6.80251 24.5262 7.94845 25.0604 9.17151 25.2916C10.3946 25.5228 11.6559 25.4434 12.8406 25.0609C13.3468 24.8969 13.8339 24.6789 14.2936 24.4105C14.6666 24.2089 15.0298 23.9911 15.3801 23.7602C15.7926 23.4785 16.188 23.1723 16.564 22.8432C16.3243 22.9829 16.0774 23.1099 15.8245 23.2237C15.6266 23.3115 15.4223 23.3927 15.2147 23.4643C13.4885 24.0539 11.6066 23.9891 9.92475 23.2822C10.3173 23.3449 10.7143 23.3764 11.1118 23.3765C12.3338 23.378 13.5372 23.0763 14.6147 22.4985C15.3316 22.1171 15.9822 21.6219 16.5413 21.032C16.3434 20.8629 16.1423 20.7068 15.9347 20.5475C13.9054 19.0258 11.4436 18.1951 8.90957 18.177C9.89056 18.5255 10.8209 19.0034 11.6762 19.598C10.9845 19.525 10.2895 19.4881 9.59393 19.4874C8.45653 19.4878 7.32134 19.5879 6.20135 19.7866C5.77322 19.8614 5.34834 19.9524 4.9267 20.0565C4.50506 20.1606 4.00558 20.3036 3.55475 20.45C2.31938 20.8557 1.12835 21.3863 0 22.0335H0ZM27.6563 20.3849C27.8542 20.2971 28.0585 20.2158 28.2661 20.1443C30.0014 19.5512 31.8937 19.6195 33.582 20.3361C33.1894 20.2733 32.7925 20.2418 32.3949 20.2418C31.1716 20.2454 29.9681 20.5526 28.8921 21.1361C28.1809 21.519 27.5359 22.0141 26.9817 22.6026C27.1796 22.7717 27.3806 22.9277 27.5882 23.0871C29.6131 24.6055 32.0687 25.436 34.5972 25.4576C33.6162 25.109 32.6858 24.6312 31.8306 24.0366C32.5223 24.1096 33.2173 24.1465 33.9128 24.1471C35.0484 24.1422 36.1814 24.0377 37.2989 23.835C37.7303 23.7569 38.1519 23.6659 38.5736 23.5618C38.9952 23.4578 39.4947 23.3147 39.9455 23.1684C41.185 22.7626 42.3804 22.232 43.5132 21.5848C43.1736 21.6316 42.8312 21.6555 42.4883 21.6563C40.7637 21.6582 39.0924 21.0568 37.7627 19.9557C37.7339 19.929 37.7036 19.904 37.6719 19.8809C36.7064 19.0834 35.5564 18.5422 34.3277 18.3069C33.0989 18.0717 31.8309 18.15 30.6402 18.5347C30.1354 18.6995 29.6494 18.9175 29.1904 19.185C28.8175 19.3866 28.4542 19.6045 28.1039 19.8354C27.691 20.1213 27.2957 20.4318 26.9201 20.7654C27.1587 20.6258 27.4045 20.4988 27.6563 20.3849ZM19.5479 31.9122C19.475 32.6057 19.4382 33.3025 19.4376 33.9998C19.4383 35.1379 19.5381 36.2738 19.736 37.3946C19.8106 37.827 19.9014 38.2498 20.0052 38.6725C20.109 39.0952 20.2517 39.596 20.3976 40.048C20.8024 41.2906 21.3316 42.4891 21.9772 43.6248C21.9316 43.2842 21.9088 42.9409 21.9091 42.5973C21.9062 40.8686 22.505 39.1931 23.6021 37.8596C23.6287 37.8307 23.6536 37.8003 23.6767 37.7685C24.4634 36.8016 24.9963 35.6527 25.2269 34.4265C25.4575 33.2003 25.3783 31.9358 24.9968 30.7481C24.8333 30.2406 24.6158 29.7522 24.3481 29.2913C24.147 28.9174 23.9297 28.5532 23.6994 28.202C23.4224 27.7798 23.1202 27.3748 22.7945 26.9891C22.9338 27.2294 23.0605 27.4769 23.174 27.7305C23.2615 27.9289 23.3426 28.1337 23.414 28.3418C24.0056 30.0816 23.9375 31.9788 23.2226 33.6714C23.2853 33.2778 23.3168 32.8798 23.3167 32.4813C23.3182 31.2561 23.0173 30.0497 22.441 28.9694C22.059 28.2564 21.5651 27.6097 20.9782 27.0542C20.8095 27.2525 20.6539 27.4541 20.4949 27.6622C18.9804 29.6923 18.152 32.1542 18.1305 34.6892C18.4779 33.7045 18.9545 32.7707 19.5479 31.9122ZM21.5296 0C21.5763 0.340526 21.6001 0.68381 21.6009 1.02754C21.6028 2.7566 21.0029 4.43214 19.9046 5.76527C19.878 5.79414 19.8531 5.82454 19.83 5.85632C19.0357 6.82357 18.4964 7.9754 18.2618 9.20605C18.0272 10.4367 18.1047 11.7067 18.4873 12.8995C18.6508 13.407 18.8683 13.8954 19.136 14.3563C19.337 14.7302 19.5544 15.0944 19.7846 15.4456C20.0656 15.8592 20.371 16.2555 20.6993 16.6325C20.56 16.3921 20.4333 16.1447 20.3198 15.8911C20.2322 15.6927 20.1511 15.4879 20.0798 15.2797C19.4882 13.54 19.5563 11.6428 20.2711 9.95021C20.2086 10.3438 20.1771 10.7418 20.1771 11.1403C20.1846 12.3679 20.4955 13.5745 21.082 14.6522C21.4575 15.3697 21.946 16.0219 22.5285 16.5837C22.6972 16.3853 22.8529 16.1837 23.0118 15.9756C24.5263 13.9456 25.3547 11.4837 25.3762 8.94868C25.0273 9.92654 24.5507 10.8537 23.9589 11.7061C24.0317 11.0126 24.0685 10.3158 24.0691 9.61853C24.0699 8.47831 23.9711 7.34021 23.774 6.21725C23.6962 5.78369 23.6053 5.35772 23.5016 4.93933C23.388 4.47434 23.2551 4.01585 23.1091 3.56387C22.7044 2.32533 22.1751 1.13124 21.5296 0V0Z" fill="url(#paint0_linear_2_2541)"/>
<defs>
<linearGradient id="paint0_linear_2_2541" x1="21.7534" y1="0.338177" x2="21.7534" y2="43.9565" gradientUnits="userSpaceOnUse">
<stop stop-color="#EE4224"/>
<stop offset="0.05" stop-color="#E94925"/>
<stop offset="0.29" stop-color="#D36528"/>
<stop offset="0.53" stop-color="#C47A2B"/>
<stop offset="0.77" stop-color="#BB862C"/>
<stop offset="1" stop-color="#B88A2D"/>
</linearGradient>
</defs>
</svg>
