<svg width="120" height="120" viewBox="0 0 120 120" fill="none" xmlns="http://www.w3.org/2000/svg">
<path d="M68.0322 48.0119C68.1199 46.6448 68.2962 45.2849 68.5599 43.9407C68.7779 42.7902 69.0585 41.6527 69.4007 40.533C69.7702 39.1117 70.2921 37.7347 70.9571 36.4259C72.5189 33.3562 74.8229 30.7277 77.6588 28.7806C80.4947 26.8335 83.772 25.6297 87.1914 25.2793H87.254H87.585C92.32 24.8315 96.7497 22.7378 100.107 19.3608C100.776 18.6779 101.398 17.9498 101.968 17.1817C101.019 20.6468 99.7274 24.0083 98.1127 27.2163C97.5224 28.3821 96.8873 29.5389 96.2075 30.6688C95.5277 31.7987 94.9374 32.6954 94.2487 33.6908C92.446 36.2521 90.426 38.6523 88.2111 40.8648C86.8503 42.2235 85.4203 43.5105 83.9267 44.7208C86.7617 44.2282 89.5195 43.3628 92.1288 42.1472C87.1474 47.043 80.7349 50.2134 73.8283 51.1954C73.1216 51.303 72.415 51.3837 71.6995 51.4375C71.6188 48.6357 72.1086 45.8468 73.139 43.2412C74.1694 40.6355 75.7187 38.2677 77.6923 36.2824C78.4695 35.5058 79.307 34.7921 80.1968 34.1482C75.5089 36.0498 71.6866 39.6201 69.4633 44.1738C69.195 44.7119 68.9535 45.2679 68.7388 45.8238C68.4656 46.5404 68.2297 47.2708 68.0322 48.0119ZM18.0054 103.126C18.5762 102.37 19.1978 101.654 19.8658 100.983C23.2235 97.6059 27.6532 95.5122 32.3882 95.0643H32.7191H32.7818C36.2045 94.7136 39.4848 93.5078 42.3225 91.5573C45.1602 89.6069 47.4647 86.9741 49.025 83.8998C49.6888 82.5967 50.2106 81.2258 50.5814 79.8106C50.9236 78.691 51.2043 77.5534 51.4222 76.403C51.687 75.0499 51.8633 73.681 51.9499 72.3048C51.7584 73.0261 51.5254 73.7358 51.2522 74.4301C51.0376 74.9861 50.7961 75.5421 50.5277 76.0801C48.3045 80.6339 44.4821 84.2042 39.7943 86.1058C40.6841 85.4619 41.5215 84.7482 42.2987 83.9715C44.2696 81.9912 45.818 79.6296 46.8497 77.0304C47.8815 74.4313 48.3751 71.6488 48.3005 68.8523C47.585 68.9062 46.8784 68.9869 46.1717 69.0945C39.2663 70.0899 32.8581 73.2693 27.8801 78.1696C30.4751 76.9353 33.2208 76.0489 36.0465 75.5331C32.11 78.7233 28.6359 82.4477 25.7245 86.599C25.0358 87.5944 24.3828 88.5988 23.7657 89.621C23.1485 90.6433 22.4508 91.9078 21.8605 93.0735C20.2446 96.2873 18.9532 99.6549 18.0054 103.126ZM17.1109 18.0695C17.865 18.6418 18.5792 19.265 19.2487 19.9347C22.617 23.301 24.7053 27.7421 25.1521 32.4892V32.821V32.8748C25.5042 36.3056 26.7089 39.5931 28.6559 42.4365C30.6029 45.2799 33.2301 47.5884 36.297 49.1508C37.6024 49.8175 38.9759 50.3406 40.3936 50.7111C41.5103 51.0542 42.645 51.3356 43.7925 51.5541C45.1421 51.8196 46.5075 51.9963 47.8801 52.0832C47.1399 51.8922 46.4112 51.6586 45.6977 51.3837C45.1431 51.1685 44.5886 50.9263 44.0519 50.6573C39.5098 48.4284 35.9486 44.5962 34.0519 39.8963C34.6941 40.7884 35.406 41.628 36.1807 42.4072C38.1612 44.3887 40.524 45.9443 43.1247 46.9789C45.7253 48.0135 48.5091 48.5053 51.3059 48.4244C51.2522 47.707 51.1717 46.9986 51.0644 46.2902C50.0831 39.369 46.9209 32.9435 42.0394 27.9517C43.2705 30.5532 44.1546 33.306 44.669 36.139C43.464 34.6425 42.1802 33.2117 40.8229 31.8525C38.6185 29.6266 36.2242 27.5982 33.6673 25.7905C32.6744 25.1 31.6726 24.4454 30.653 23.8266C29.6333 23.2079 28.3721 22.5084 27.2093 21.9165C24.0095 20.2977 20.6566 19.0029 17.2004 18.0515L17.1109 18.0695ZM75.2504 72.7711C73.1219 72.1176 70.9016 71.8147 68.6762 71.8744C68.7299 72.5918 68.8104 73.3002 68.9177 74.0087C69.907 80.9381 73.0784 87.3696 77.9696 92.3651C76.7385 89.7635 75.8543 87.0108 75.3399 84.1778C76.5471 85.6752 77.8309 87.109 79.186 88.4732C81.3929 90.6938 83.787 92.719 86.3417 94.5263C87.3345 95.2168 88.3363 95.8714 89.356 96.4901C90.3757 97.1089 91.6368 97.8084 92.7996 98.4002C96.018 100.01 99.389 101.293 102.862 102.229C102.108 101.654 101.394 101.028 100.725 100.355C97.3561 96.9889 95.2678 92.5478 94.8211 87.8007V87.4689V87.4151C94.4698 83.9851 93.2665 80.6982 91.3211 77.8549C89.3757 75.0116 86.7504 72.7026 83.6852 71.1391C82.3854 70.4736 81.018 69.9504 79.6064 69.5787C78.4897 69.2357 77.355 68.9543 76.2075 68.7358C74.8579 68.4703 73.4925 68.2935 72.1199 68.2067C72.8593 68.4005 73.5879 68.634 74.3023 68.9062C74.8569 69.1214 75.4115 69.3635 75.9481 69.6325C80.4902 71.8615 84.0514 75.6936 85.9481 80.3935C85.3059 79.5014 84.594 78.6618 83.8193 77.8826C81.4294 75.4915 78.4852 73.7322 75.2504 72.7622V72.7711ZM0 60.7637C0.936895 60.6376 1.88118 60.5747 2.82648 60.5754C7.58154 60.5676 12.1904 62.223 15.8587 65.2564C15.9352 65.3297 16.0158 65.3986 16.1002 65.4626C18.7599 67.6378 21.9201 69.1112 25.293 69.7487C28.666 70.3862 32.1444 70.1674 35.4114 69.1124C36.8074 68.6604 38.1509 68.0591 39.4186 67.3189C40.4472 66.7629 41.449 66.1621 42.415 65.5254C43.5527 64.7486 44.6429 63.9041 45.6798 62.9966C45.0187 63.3818 44.338 63.732 43.6404 64.0458C43.0948 64.2879 42.5313 64.5121 41.9589 64.7094C37.1983 66.3354 32.0085 66.1567 27.3703 64.2072C28.453 64.3802 29.5476 64.4671 30.644 64.4673C34.0139 64.4713 37.3326 63.6395 40.3041 62.046C42.2812 60.9941 44.0754 59.6284 45.6172 58.0017C45.0716 57.5354 44.517 57.1049 43.9445 56.6655C38.3481 52.4691 31.5591 50.1782 24.5707 50.1282C27.276 51.0894 29.8418 52.4072 32.2004 54.047C30.2928 53.8457 28.3761 53.7439 26.458 53.7421C23.3213 53.743 20.1907 54.0191 17.102 54.5671C15.9213 54.7734 14.7496 55.0245 13.5868 55.3115C12.424 55.5984 11.0465 55.993 9.80322 56.3965C6.39636 57.5155 3.11174 58.9788 0 60.7637H0ZM76.2701 56.2172C76.8157 55.975 77.3792 55.7509 77.9517 55.5536C82.7372 53.9178 87.956 54.1062 92.6118 56.0827C91.5291 55.9093 90.4345 55.8224 89.3381 55.8226C85.9644 55.8323 82.6455 56.6796 79.678 58.2887C77.7168 59.3446 75.9379 60.7102 74.4097 62.333C74.9553 62.7993 75.5098 63.2297 76.0823 63.6691C81.6664 67.8566 88.4384 70.1469 95.4114 70.2064C92.7061 69.2453 90.1403 67.9274 87.7818 66.2877C89.6893 66.489 91.606 66.5908 93.5241 66.5926C96.6559 66.5788 99.7805 66.2907 102.862 65.7317C104.052 65.5164 105.215 65.2654 106.377 64.9784C107.54 64.6914 108.918 64.2969 110.161 63.8933C113.579 62.7743 116.876 61.3111 120 59.5262C119.063 59.6553 118.119 59.7212 117.174 59.7234C112.417 59.7287 107.808 58.07 104.141 55.0335C104.062 54.9599 103.978 54.891 103.891 54.8272C101.228 52.6279 98.0568 51.1352 94.6682 50.4865C91.2796 49.8377 87.7827 50.0538 84.4991 51.1147C83.1068 51.569 81.7666 52.1702 80.5009 52.9082C79.4723 53.4641 78.4705 54.065 77.5045 54.7017C76.3659 55.4901 75.2756 56.3465 74.2397 57.2664C74.8979 56.8815 75.5756 56.5313 76.2701 56.2172ZM53.9088 88.0069C53.7079 89.9194 53.6064 91.841 53.6046 93.764C53.6066 96.9028 53.8819 100.035 54.4275 103.126C54.6333 104.319 54.8837 105.485 55.1699 106.65C55.4562 107.816 55.8497 109.197 56.2522 110.444C57.3684 113.871 58.8278 117.176 60.6082 120.308C60.4825 119.368 60.4197 118.422 60.4204 117.474C60.4127 112.707 62.0639 108.086 65.0894 104.408C65.1628 104.329 65.2315 104.245 65.2952 104.157C67.4648 101.491 68.9344 98.3225 69.5703 94.9409C70.2061 91.5593 69.9879 88.072 68.9356 84.7965C68.4847 83.397 67.885 82.0501 67.1467 80.7791C66.5921 79.7478 65.9928 78.7435 65.3578 77.775C64.594 76.6106 63.7606 75.4936 62.8623 74.4301C63.2464 75.0929 63.5958 75.7753 63.9088 76.4747C64.1503 77.0217 64.3739 77.5867 64.5707 78.1606C66.2022 82.9584 66.0143 88.1905 64.0429 92.8583C64.2158 91.7729 64.3026 90.6754 64.3023 89.5762C64.3064 86.1976 63.4767 82.8705 61.8873 79.8913C60.8341 77.9251 59.472 76.1417 57.8533 74.6095C57.3882 75.1565 56.9589 75.7125 56.5206 76.2864C52.3439 81.8849 50.0594 88.6742 50 95.6651C50.958 92.9497 52.2725 90.3743 53.9088 88.0069ZM59.3739 0C59.5026 0.939096 59.5684 1.8858 59.5707 2.83373C59.5759 7.60209 57.9215 12.2229 54.8927 15.8994C54.8193 15.979 54.7506 16.0628 54.6869 16.1504C52.4963 18.8179 51.0092 21.9944 50.3621 25.3883C49.7151 28.7821 49.9289 32.2846 50.9839 35.574C51.4348 36.9736 52.0345 38.3205 52.7728 39.5914C53.3274 40.6227 53.9267 41.6271 54.5617 42.5956C55.3366 43.7361 56.1789 44.8291 57.0841 45.8687C56.6999 45.2059 56.3506 44.5235 56.0376 43.8241C55.7961 43.2771 55.5724 42.7121 55.3757 42.1382C53.7441 37.3404 53.932 32.1083 55.9034 27.4405C55.7309 28.526 55.6441 29.6234 55.644 30.7226C55.6647 34.1081 56.5221 37.4356 58.1395 40.4075C59.1752 42.3864 60.5222 44.185 62.1288 45.7342C62.5939 45.1872 63.0233 44.6312 63.4615 44.0573C67.6382 38.4588 69.9227 31.6695 69.9821 24.6785C69.0198 27.3752 67.7054 29.9323 66.0733 32.2829C66.2742 30.3705 66.3757 28.4489 66.3775 26.5258C66.3796 23.3813 66.1072 20.2427 65.5635 17.1458C65.3488 15.9502 65.0984 14.7754 64.8122 13.6216C64.4991 12.3393 64.1324 11.0748 63.7299 9.82836C62.6137 6.41276 61.1542 3.11973 59.3739 0V0Z" fill="url(#paint0_linear_2_2164)"/>
<defs>
<linearGradient id="paint0_linear_2_2164" x1="59.9911" y1="0.932618" x2="59.9911" y2="121.222" gradientUnits="userSpaceOnUse">
<stop stop-color="#EE4224"/>
<stop offset="0.05" stop-color="#E94925"/>
<stop offset="0.29" stop-color="#D36528"/>
<stop offset="0.53" stop-color="#C47A2B"/>
<stop offset="0.77" stop-color="#BB862C"/>
<stop offset="1" stop-color="#B88A2D"/>
</linearGradient>
</defs>
</svg>
